<svg data-v-423bf9ae="" xmlns="http://www.w3.org/2000/svg" viewBox="0 0 468.0660247592847 60" class="font"><!----><!----><!----><g data-v-423bf9ae="" id="38c09f59-25b4-479e-851e-d77197747169" fill="white" transform="matrix(4.225584506988525,0,0,4.225584506988525,1.1884428262710571,-8.58321762084961)"><path d="M-0.28 14.81L-0.28 14.81L-0.28 14.81Q-0.28 14.55 0.53 12.82L0.53 12.82L0.53 12.82Q1.34 11.10 2.37 8.91L2.37 8.91L2.37 8.91Q3.40 6.72 3.77 5.73L3.77 5.73L4.02 5.04L4.02 5.04Q3.91 4.84 3.47 4.33L3.47 4.33L3.47 4.33Q3.98 4.16 4.35 4.16L4.35 4.16L4.35 4.16Q4.72 4.16 4.96 4.21L4.96 4.21L4.96 4.21Q5.21 4.27 5.40 4.40L5.40 4.40L5.40 4.40Q5.59 4.54 5.73 4.68L5.73 4.68L5.73 4.68Q5.88 4.82 6.01 5.09L6.01 5.09L6.01 5.09Q6.13 5.36 6.22 5.58L6.22 5.58L6.22 5.58Q6.30 5.80 6.41 6.19L6.41 6.19L6.41 6.19Q6.51 6.58 6.57 6.87L6.57 6.87L6.57 6.87Q6.64 7.15 6.74 7.67L6.74 7.67L6.74 7.67Q6.85 8.18 6.96 8.65L6.96 8.65L6.96 8.65Q7.07 9.13 7.35 10.46L7.35 10.46L7.35 10.46Q7.63 11.80 7.79 12.47L7.79 12.47L7.79 12.47Q7.95 13.13 8.25 13.96L8.25 13.96L8.25 13.96Q8.55 14.78 8.89 15.26L8.89 15.26L8.89 15.26Q8.08 15.65 7.57 15.65L7.57 15.65L7.57 15.65Q7.07 15.65 6.83 15.39L6.83 15.39L6.83 15.39Q6.59 15.13 6.43 14.61L6.43 14.61L6.43 14.61Q6.26 14.08 5.77 11.79L5.77 11.79L5.77 11.79Q5.45 12.07 4.72 12.10L4.72 12.10L2.32 12.18L2.32 12.18Q1.47 14.27 1.06 15.89L1.06 15.89L1.06 15.89Q-0.28 15.41-0.28 14.81ZM4.66 6.90L4.66 6.90L4.66 6.90Q4.47 7.35 3.80 8.81L3.80 8.81L3.80 8.81Q3.14 10.28 2.77 11.14L2.77 11.14L5.64 11.14L5.64 11.14Q4.98 8.12 4.66 6.90ZM11.61 12.60L11.61 12.60L11.61 12.60Q11.61 14.27 12.61 14.27L12.61 14.27L12.61 14.27Q13.15 14.27 13.65 13.69L13.65 13.69L13.65 13.69Q14.15 13.12 14.47 12.15L14.47 12.15L14.47 12.15Q14.78 11.19 15.02 10.09L15.02 10.09L15.02 10.09Q15.25 8.99 15.36 7.76L15.36 7.76L15.36 7.76Q15.55 5.38 15.55 4.04L15.55 4.04L15.55 4.04Q15.55 2.70 15.44 2.03L15.44 2.03L15.44 2.03Q16.45 2.25 16.86 2.98L16.86 2.98L16.86 2.98Q17.26 3.71 17.26 4.82L17.26 4.82L17.26 4.82Q17.26 5.92 16.79 8.93L16.79 8.93L16.79 8.93Q16.32 11.94 16.32 13.33L16.32 13.33L16.32 13.33Q16.32 14.71 16.45 15.68L16.45 15.68L16.45 15.68Q15.46 15.41 15.08 14.72L15.08 14.72L15.08 14.72Q14.71 14.03 14.71 12.98L14.71 12.98L14.71 12.98Q14.28 14.18 13.41 14.88L13.41 14.88L13.41 14.88Q12.54 15.58 11.62 15.58L11.62 15.58L11.62 15.58Q10.70 15.58 10.11 14.88L10.11 14.88L10.11 14.88Q9.53 14.17 9.53 12.80L9.53 12.80L9.53 12.80Q9.53 10.63 10.72 9.07L10.72 9.07L10.72 9.07Q11.91 7.50 13.54 7.50L13.54 7.50L13.54 7.50Q14 7.50 14.99 7.73L14.99 7.73L14.99 7.73Q14.13 7.95 13.45 8.51L13.45 8.51L13.45 8.51Q12.77 9.06 12.39 9.77L12.39 9.77L12.39 9.77Q11.61 11.19 11.61 12.60ZM21.38 15.43L21.38 15.43L21.38 15.43Q20.93 15.62 20.44 15.62L20.44 15.62L20.44 15.62Q19.95 15.62 19.89 15.41L19.89 15.41L19.89 15.41Q19.67 14.52 19.38 12.73L19.38 12.73L19.38 12.73Q19.08 10.95 18.78 9.61L18.78 9.61L18.78 9.61Q18.48 8.27 18.06 7.59L18.06 7.59L18.06 7.59Q18.83 7.22 19.29 7.22L19.29 7.22L19.29 7.22Q19.75 7.22 19.99 7.43L19.99 7.43L19.99 7.43Q20.23 7.64 20.39 8.27L20.39 8.27L20.39 8.27Q20.55 8.89 20.62 9.30L20.62 9.30L20.62 9.30Q20.82 10.64 20.82 10.79L20.82 10.79L20.82 10.79Q20.82 10.95 20.93 12.05L20.93 12.05L20.93 12.05Q21.04 13.15 21.10 13.50L21.10 13.50L21.10 13.50Q23.59 8.67 23.59 7.04L23.59 7.04L23.59 7.04Q24.74 7.63 24.74 8.32L24.74 8.32L24.74 8.32Q24.74 8.88 24.16 9.98L24.16 9.98L24.16 9.98Q23.58 11.07 22.70 12.64L22.70 12.64L22.70 12.64Q21.83 14.20 21.38 15.43ZM28.95 11.98L28.95 11.98L28.95 11.98Q28.28 11.98 27.64 11.83L27.64 11.83L27.64 11.83Q27.62 11.97 27.62 12.26L27.62 12.26L27.62 12.26Q27.62 13.43 28.06 14.01L28.06 14.01L28.06 14.01Q28.49 14.60 29.09 14.60L29.09 14.60L29.09 14.60Q29.69 14.60 30.24 14.24L30.24 14.24L30.24 14.24Q30.79 13.87 31.19 13.23L31.19 13.23L31.19 13.23Q31.70 13.34 31.70 13.75L31.70 13.75L31.70 13.75Q30.46 15.64 28.52 15.64L28.52 15.64L28.52 15.64Q27.34 15.64 26.46 14.74L26.46 14.74L26.46 14.74Q25.58 13.83 25.58 12.22L25.58 12.22L25.58 12.22Q25.58 11.02 26.04 9.93L26.04 9.93L26.04 9.93Q26.50 8.85 27.51 8.10L27.51 8.10L27.51 8.10Q28.52 7.35 29.74 7.35L29.74 7.35L29.74 7.35Q30.97 7.35 31.54 7.91L31.54 7.91L31.54 7.91Q32.12 8.47 32.12 9.38L32.12 9.38L32.12 9.38Q32.12 10.70 31.20 11.34L31.20 11.34L31.20 11.34Q30.28 11.98 28.95 11.98ZM29.54 8.22L29.54 8.22L29.54 8.22Q28.83 8.22 28.34 9.10L28.34 9.10L28.34 9.10Q27.85 9.98 27.69 11.24L27.69 11.24L27.90 11.24L27.90 11.24Q29.12 11.24 29.70 10.61L29.70 10.61L29.70 10.61Q30.28 9.98 30.28 9.10L30.28 9.10L30.28 9.10Q30.28 8.74 30.09 8.48L30.09 8.48L30.09 8.48Q29.90 8.22 29.54 8.22ZM38.99 7.35L38.99 7.35L38.99 7.35Q39.82 7.35 40.17 7.86L40.17 7.86L40.17 7.86Q40.53 8.37 40.53 9.25L40.53 9.25L40.53 9.25Q40.53 10.12 40.26 11.70L40.26 11.70L40.26 11.70Q39.98 13.29 39.98 14.01L39.98 14.01L39.98 14.01Q39.98 14.73 40.17 15.06L40.17 15.06L40.17 15.06Q40.35 15.39 40.78 15.62L40.78 15.62L40.78 15.62Q40.60 15.64 40.26 15.64L40.26 15.64L40.26 15.64Q39.09 15.64 38.59 15.27L38.59 15.27L38.59 15.27Q38.09 14.91 38.09 14L38.09 14L38.09 14Q38.09 13.48 38.37 11.98L38.37 11.98L38.37 11.98Q38.65 10.47 38.65 9.73L38.65 9.73L38.65 9.73Q38.65 8.81 38.09 8.81L38.09 8.81L38.09 8.81Q37.77 8.81 37.37 9.18L37.37 9.18L37.37 9.18Q36.96 9.56 36.58 10.21L36.58 10.21L36.58 10.21Q36.20 10.86 35.95 11.89L35.95 11.89L35.95 11.89Q35.70 12.91 35.70 13.92L35.70 13.92L35.70 13.92Q35.70 14.94 35.78 15.43L35.78 15.43L35.78 15.43Q35.34 15.46 35.20 15.46L35.20 15.46L35.20 15.46Q34.40 15.46 34.05 15.18L34.05 15.18L34.05 15.18Q33.70 14.90 33.70 14.25L33.70 14.25L33.70 14.25Q33.70 13.97 33.99 12.10L33.99 12.10L33.99 12.10Q34.29 10.22 34.29 9.11L34.29 9.11L34.29 9.11Q34.29 7.99 34.05 7.06L34.05 7.06L34.05 7.06Q35.07 7.38 35.48 7.97L35.48 7.97L35.48 7.97Q35.88 8.57 35.88 9.33L35.88 9.33L35.88 9.33Q35.88 10.09 35.71 11.10L35.71 11.10L35.71 11.10Q36.18 9.53 37.17 8.44L37.17 8.44L37.17 8.44Q38.16 7.35 38.99 7.35ZM45.05 10.60L45.05 10.60L45.05 10.60Q44.83 11.84 44.70 12.81L44.70 12.81L44.70 12.81Q44.58 13.78 44.58 14.78L44.58 14.78L44.58 14.78Q44.58 15.79 44.77 16.23L44.77 16.23L44.77 16.23Q43.69 15.95 43.29 15.37L43.29 15.37L43.29 15.37Q42.88 14.78 42.88 13.72L42.88 13.72L42.88 13.72Q42.88 12.78 43.18 11.15L43.18 11.15L43.18 11.15Q43.47 9.52 43.55 8.95L43.55 8.95L43.55 8.95Q42.83 9.07 42 9.44L42 9.44L42 9.44Q41.97 9.13 41.97 8.97L41.97 8.97L41.97 8.97Q41.97 8.23 42.42 7.96L42.42 7.96L42.42 7.96Q42.87 7.69 43.71 7.67L43.71 7.67L43.71 7.67Q43.81 6.62 43.81 6.16L43.81 6.16L43.81 6.16Q43.81 5.70 43.80 5.39L43.80 5.39L43.80 5.39Q43.79 5.08 43.79 4.93L43.79 4.93L43.79 4.93Q44.72 5.03 45.14 5.48L45.14 5.48L45.14 5.48Q45.56 5.94 45.56 6.78L45.56 6.78L45.56 6.78Q45.56 7.11 45.49 7.71L45.49 7.71L45.49 7.71Q46.66 7.69 47.21 7.25L47.21 7.25L47.21 7.25Q47.24 7.53 47.24 7.67L47.24 7.67L47.24 7.67Q47.24 8.34 47.00 8.60L47.00 8.60L47.00 8.60Q46.76 8.86 46.20 8.86L46.20 8.86L46.20 8.86Q45.64 8.86 45.35 8.85L45.35 8.85L45.35 8.85Q45.28 9.35 45.05 10.60ZM51.41 15.64L51.41 15.64L51.41 15.64Q49.76 15.64 48.64 14.38L48.64 14.38L48.64 14.38Q47.52 13.12 47.52 10.71L47.52 10.71L47.52 10.71Q47.52 8.02 48.90 6.13L48.90 6.13L48.90 6.13Q49.59 5.22 50.66 4.68L50.66 4.68L50.66 4.68Q51.73 4.14 53.14 4.14L53.14 4.14L53.14 4.14Q54.54 4.14 55.28 4.89L55.28 4.89L55.28 4.89Q56.01 5.64 56.01 6.66L56.01 6.66L56.01 6.66Q56.01 7.67 55.45 8.31L55.45 8.31L55.45 8.31Q54.89 8.95 54.00 8.95L54.00 8.95L54.00 8.95Q53.69 8.95 53.28 8.83L53.28 8.83L53.28 8.83Q53.58 8.47 53.80 7.80L53.80 7.80L53.80 7.80Q54.03 7.13 54.03 6.52L54.03 6.52L54.03 6.52Q54.03 5.92 53.75 5.54L53.75 5.54L53.75 5.54Q53.47 5.17 52.86 5.17L52.86 5.17L52.86 5.17Q51.94 5.17 51.20 6.02L51.20 6.02L51.20 6.02Q50.46 6.87 50.09 8.12L50.09 8.12L50.09 8.12Q49.73 9.37 49.73 10.70L49.73 10.70L49.73 10.70Q49.73 12.49 50.43 13.41L50.43 13.41L50.43 13.41Q51.13 14.34 52.22 14.34L52.22 14.34L52.22 14.34Q52.91 14.34 53.65 13.87L53.65 13.87L53.65 13.87Q54.39 13.41 55.06 12.56L55.06 12.56L55.06 12.56Q55.58 12.67 55.58 13.08L55.58 13.08L55.58 13.08Q55.05 14.04 54.28 14.64L54.28 14.64L54.28 14.64Q53.51 15.25 52.82 15.44L52.82 15.44L52.82 15.44Q52.14 15.64 51.41 15.64ZM59.11 12.78L59.11 12.78L59.11 12.78Q59.11 13.44 59.35 13.85L59.35 13.85L59.35 13.85Q59.60 14.27 60.05 14.27L60.05 14.27L60.05 14.27Q60.70 14.27 61.30 13.50L61.30 13.50L61.30 13.50Q61.89 12.73 62.25 11.52L62.25 11.52L62.25 11.52Q62.61 10.32 62.61 9.23L62.61 9.23L62.61 9.23Q62.61 8.15 62.52 7.48L62.52 7.48L62.52 7.48Q62.94 7.45 63.11 7.45L63.11 7.45L63.11 7.45Q63.83 7.45 64.19 7.71L64.19 7.71L64.19 7.71Q64.55 7.98 64.55 8.67L64.55 8.67L64.55 8.67Q64.55 8.93 64.22 10.83L64.22 10.83L64.22 10.83Q63.88 12.73 63.88 13.87L63.88 13.87L63.88 13.87Q63.88 15.01 64.32 15.89L64.32 15.89L64.32 15.89Q63.27 15.71 62.78 15.11L62.78 15.11L62.78 15.11Q62.29 14.52 62.29 13.40L62.29 13.40L62.29 13.40Q62.29 13.20 62.34 12.64L62.34 12.64L62.34 12.64Q61.96 13.97 61.00 14.78L61.00 14.78L61.00 14.78Q60.03 15.60 59.10 15.60L59.10 15.60L59.10 15.60Q58.17 15.60 57.60 14.90L57.60 14.90L57.60 14.90Q57.04 14.21 57.04 12.94L57.04 12.94L57.04 12.94Q57.04 11.66 57.49 10.46L57.49 10.46L57.49 10.46Q57.95 9.27 58.86 8.44L58.86 8.44L58.86 8.44Q59.77 7.60 60.89 7.60L60.89 7.60L60.89 7.60Q61.53 7.60 62.20 7.91L62.20 7.91L62.20 7.91Q60.79 8.41 59.95 9.89L59.95 9.89L59.95 9.89Q59.11 11.37 59.11 12.78ZM66.58 15.08L66.58 15.08Q66.42 14.80 66.37 14.54L66.37 14.54L66.37 14.54Q66.33 14.28 66.33 13.73L66.33 13.73L66.33 13.73Q66.33 13.19 66.80 9.44L66.80 9.44L66.80 9.44Q67.27 5.68 67.27 4.28L67.27 4.28L67.27 4.28Q67.27 2.88 67.10 2.46L67.10 2.46L67.10 2.46Q68.15 2.74 68.54 3.31L68.54 3.31L68.54 3.31Q68.92 3.88 68.92 4.91L68.92 4.91L68.92 4.91Q68.92 5.53 68.52 8.92L68.52 8.92L68.52 8.92Q68.11 12.31 68.11 14.38L68.11 14.38L68.11 14.38Q68.11 14.83 68.17 15.64L68.17 15.64L68.17 15.64Q66.89 15.58 66.58 15.08L66.58 15.08ZM73.65 11.98L73.65 11.98L73.65 11.98Q72.98 11.98 72.34 11.83L72.34 11.83L72.34 11.83Q72.32 11.97 72.32 12.26L72.32 12.26L72.32 12.26Q72.32 13.43 72.76 14.01L72.76 14.01L72.76 14.01Q73.19 14.60 73.79 14.60L73.79 14.60L73.79 14.60Q74.40 14.60 74.94 14.24L74.94 14.24L74.94 14.24Q75.49 13.87 75.89 13.23L75.89 13.23L75.89 13.23Q76.40 13.34 76.40 13.75L76.40 13.75L76.40 13.75Q75.17 15.64 73.22 15.64L73.22 15.64L73.22 15.64Q72.04 15.64 71.16 14.74L71.16 14.74L71.16 14.74Q70.28 13.83 70.28 12.22L70.28 12.22L70.28 12.22Q70.28 11.02 70.74 9.93L70.74 9.93L70.74 9.93Q71.20 8.85 72.21 8.10L72.21 8.10L72.21 8.10Q73.22 7.35 74.45 7.35L74.45 7.35L74.45 7.35Q75.67 7.35 76.24 7.91L76.24 7.91L76.24 7.91Q76.82 8.47 76.82 9.38L76.82 9.38L76.82 9.38Q76.82 10.70 75.90 11.34L75.90 11.34L75.90 11.34Q74.98 11.98 73.65 11.98ZM74.24 8.22L74.24 8.22L74.24 8.22Q73.53 8.22 73.04 9.10L73.04 9.10L73.04 9.10Q72.55 9.98 72.39 11.24L72.39 11.24L72.60 11.24L72.60 11.24Q73.82 11.24 74.40 10.61L74.40 10.61L74.40 10.61Q74.98 9.98 74.98 9.10L74.98 9.10L74.98 9.10Q74.98 8.74 74.80 8.48L74.80 8.48L74.80 8.48Q74.61 8.22 74.24 8.22ZM83.69 7.35L83.69 7.35L83.69 7.35Q84.52 7.35 84.88 7.86L84.88 7.86L84.88 7.86Q85.23 8.37 85.23 9.25L85.23 9.25L85.23 9.25Q85.23 10.12 84.96 11.70L84.96 11.70L84.96 11.70Q84.69 13.29 84.69 14.01L84.69 14.01L84.69 14.01Q84.69 14.73 84.87 15.06L84.87 15.06L84.87 15.06Q85.05 15.39 85.48 15.62L85.48 15.62L85.48 15.62Q85.30 15.64 84.97 15.64L84.97 15.64L84.97 15.64Q83.79 15.64 83.29 15.27L83.29 15.27L83.29 15.27Q82.80 14.91 82.80 14L82.80 14L82.80 14Q82.80 13.48 83.08 11.98L83.08 11.98L83.08 11.98Q83.36 10.47 83.36 9.73L83.36 9.73L83.36 9.73Q83.36 8.81 82.80 8.81L82.80 8.81L82.80 8.81Q82.47 8.81 82.07 9.18L82.07 9.18L82.07 9.18Q81.66 9.56 81.28 10.21L81.28 10.21L81.28 10.21Q80.91 10.86 80.65 11.89L80.65 11.89L80.65 11.89Q80.40 12.91 80.40 13.92L80.40 13.92L80.40 13.92Q80.40 14.94 80.49 15.43L80.49 15.43L80.49 15.43Q80.04 15.46 79.90 15.46L79.90 15.46L79.90 15.46Q79.10 15.46 78.75 15.18L78.75 15.18L78.75 15.18Q78.40 14.90 78.40 14.25L78.40 14.25L78.40 14.25Q78.40 13.97 78.69 12.10L78.69 12.10L78.69 12.10Q78.99 10.22 78.99 9.11L78.99 9.11L78.99 9.11Q78.99 7.99 78.75 7.06L78.75 7.06L78.75 7.06Q79.77 7.38 80.18 7.97L80.18 7.97L80.18 7.97Q80.58 8.57 80.58 9.33L80.58 9.33L80.58 9.33Q80.58 10.09 80.42 11.10L80.42 11.10L80.42 11.10Q80.88 9.53 81.87 8.44L81.87 8.44L81.87 8.44Q82.87 7.35 83.69 7.35ZM88.76 12.60L88.76 12.60L88.76 12.60Q88.76 14.27 89.77 14.27L89.77 14.27L89.77 14.27Q90.30 14.27 90.80 13.69L90.80 13.69L90.80 13.69Q91.31 13.12 91.62 12.15L91.62 12.15L91.62 12.15Q91.94 11.19 92.17 10.09L92.17 10.09L92.17 10.09Q92.40 8.99 92.51 7.76L92.51 7.76L92.51 7.76Q92.71 5.38 92.71 4.04L92.71 4.04L92.71 4.04Q92.71 2.70 92.60 2.03L92.60 2.03L92.60 2.03Q93.60 2.25 94.01 2.98L94.01 2.98L94.01 2.98Q94.42 3.71 94.42 4.82L94.42 4.82L94.42 4.82Q94.42 5.92 93.95 8.93L93.95 8.93L93.95 8.93Q93.48 11.94 93.48 13.33L93.48 13.33L93.48 13.33Q93.48 14.71 93.60 15.68L93.60 15.68L93.60 15.68Q92.61 15.41 92.24 14.72L92.24 14.72L92.24 14.72Q91.87 14.03 91.87 12.98L91.87 12.98L91.87 12.98Q91.43 14.18 90.57 14.88L90.57 14.88L90.57 14.88Q89.70 15.58 88.77 15.58L88.77 15.58L88.77 15.58Q87.85 15.58 87.27 14.88L87.27 14.88L87.27 14.88Q86.69 14.17 86.69 12.80L86.69 12.80L86.69 12.80Q86.69 10.63 87.88 9.07L87.88 9.07L87.88 9.07Q89.07 7.50 90.69 7.50L90.69 7.50L90.69 7.50Q91.15 7.50 92.15 7.73L92.15 7.73L92.15 7.73Q91.28 7.95 90.60 8.51L90.60 8.51L90.60 8.51Q89.92 9.06 89.54 9.77L89.54 9.77L89.54 9.77Q88.76 11.19 88.76 12.60ZM97.41 12.78L97.41 12.78L97.41 12.78Q97.41 13.44 97.66 13.85L97.66 13.85L97.66 13.85Q97.90 14.27 98.35 14.27L98.35 14.27L98.35 14.27Q99.01 14.27 99.60 13.50L99.60 13.50L99.60 13.50Q100.20 12.73 100.56 11.52L100.56 11.52L100.56 11.52Q100.91 10.32 100.91 9.23L100.91 9.23L100.91 9.23Q100.91 8.15 100.83 7.48L100.83 7.48L100.83 7.48Q101.25 7.45 101.42 7.45L101.42 7.45L101.42 7.45Q102.13 7.45 102.49 7.71L102.49 7.71L102.49 7.71Q102.86 7.98 102.86 8.67L102.86 8.67L102.86 8.67Q102.86 8.93 102.52 10.83L102.52 10.83L102.52 10.83Q102.19 12.73 102.19 13.87L102.19 13.87L102.19 13.87Q102.19 15.01 102.62 15.89L102.62 15.89L102.62 15.89Q101.57 15.71 101.08 15.11L101.08 15.11L101.08 15.11Q100.59 14.52 100.59 13.40L100.59 13.40L100.59 13.40Q100.59 13.20 100.65 12.64L100.65 12.64L100.65 12.64Q100.27 13.97 99.30 14.78L99.30 14.78L99.30 14.78Q98.34 15.60 97.41 15.60L97.41 15.60L97.41 15.60Q96.47 15.60 95.91 14.90L95.91 14.90L95.91 14.90Q95.34 14.21 95.34 12.94L95.34 12.94L95.34 12.94Q95.34 11.66 95.80 10.46L95.80 10.46L95.80 10.46Q96.25 9.27 97.16 8.44L97.16 8.44L97.16 8.44Q98.07 7.60 99.19 7.60L99.19 7.60L99.19 7.60Q99.83 7.60 100.51 7.91L100.51 7.91L100.51 7.91Q99.09 8.41 98.25 9.89L98.25 9.89L98.25 9.89Q97.41 11.37 97.41 12.78ZM106.74 10.88L106.74 10.88Q107.24 9.06 107.95 8.20L107.95 8.20L107.95 8.20Q108.65 7.34 109.26 7.34L109.26 7.34L109.26 7.34Q109.87 7.34 110.18 7.79L110.18 7.79L110.18 7.79Q110.49 8.25 110.49 8.97L110.49 8.97L110.49 8.97Q110.49 9.69 110.06 10.29L110.06 10.29L110.06 10.29Q109.63 10.89 108.89 10.89L108.89 10.89L108.89 10.89Q108.70 10.89 108.43 10.78L108.43 10.78L108.43 10.78Q108.86 10.23 108.86 9.46L108.86 9.46L108.86 9.46Q108.86 9.02 108.50 9.02L108.50 9.02L108.50 9.02Q108.23 9.02 107.93 9.39L107.93 9.39L107.93 9.39Q107.62 9.76 107.34 10.41L107.34 10.41L107.34 10.41Q107.06 11.06 106.87 12.08L106.87 12.08L106.87 12.08Q106.68 13.09 106.68 14.24L106.68 14.24L106.68 14.24Q106.68 14.38 106.75 15.43L106.75 15.43L106.75 15.43Q106.30 15.46 106.18 15.46L106.18 15.46L106.18 15.46Q105.38 15.46 105.03 15.18L105.03 15.18L105.03 15.18Q104.68 14.90 104.68 14.25L104.68 14.25L104.68 14.25Q104.68 13.97 104.97 12.10L104.97 12.10L104.97 12.10Q105.27 10.22 105.27 9.11L105.27 9.11L105.27 9.11Q105.27 7.99 105.03 7.06L105.03 7.06L105.03 7.06Q106.05 7.38 106.46 7.97L106.46 7.97L106.46 7.97Q106.86 8.57 106.86 9.36L106.86 9.36L106.86 9.36Q106.86 10.15 106.74 10.88L106.74 10.88Z"></path></g><!----><!----></svg>